{"title":"Ass Break Hotel DVD","uid":7112409,"size":846885963,"categoryP":"porn","categoryS":"movies","magnet":"?xt=urn:btih:ef752347075174f5af0398a30e6343dd54c175db&amp;dn=Ass+Break+Hotel+DVD&amp;tr=udp%3A%2F%2Ftracker.openbittorrent.com%3A80&amp;tr=udp%3A%2F%2Fopen.demonii.com%3A1337&amp;tr=udp%3A%2F%2Ftracker.coppersurfer.tk%3A6969&amp;tr=udp%3A%2F%2Fexodus.desync.com%3A6969","seeders":0,"leechers":1,"uploader":"tigris1968","files":9,"time":1332108573,"description":"Ass Break Hotel DVD\n\nPrivate\n\nCategory All Sex, Anal, Foreign \n\nDirector Ettore Buchi \n\nStarring Aletta Ocean, Black Angelika, Laura Crystal, Colette, Miky Gold\n\nStudio Private \n\nDiscs 1 \n\n\nRelease Date Feb 17, 2012\n &lt;a href=&quot;\nhttp://bayimg.com/FanciAadg&quot; rel=&quot;nofollow&quot; target=&quot;_NEW&quot;&gt;\nhttp://bayimg.com/FanciAadg&lt;/a&gt;\n &lt;a href=&quot;\nhttp://bayimg.com/faNCjaADG&quot; rel=&quot;nofollow&quot; target=&quot;_NEW&quot;&gt;\nhttp://bayimg.com/faNCjaADG&lt;/a&gt;\n &lt;a href=&quot;\nhttp://bayimg.com/fancKaADg&quot; rel=&quot;nofollow&quot; target=&quot;_NEW&quot;&gt;\nhttp://bayimg.com/fancKaADg&lt;/a&gt;\n\n                                  info\n\nGeneral\nComplete name                    : C:DownloadsAss Break Hotel DVDdvdAss Break Hotel DVD.avi\nFormat                           : AVI\nFormat/Info                      : Audio Video Interleave\nFile size                        : 806 MiB\nDuration                         : 1h 57mn\nOverall bit rate                 : 961 Kbps\nWriting application              : MEncoder SVN-r30881(20100311-gcc4.3.3)\nWriting library                  : MPlayer\n\nVideo\nID                               : 0\nFormat                           : MPEG-4 Visual\nFormat profile                   : Advanced Simple@L5\nFormat settings, BVOP            : 2\nFormat settings, QPel            : No\nFormat settings, GMC             : No warppoints\nFormat settings, Matrix          : Default (H.263)\nCodec ID                         : XVID\nCodec ID/Hint                    : XviD\nDuration                         : 1h 57mn\nBit rate                         : 821 Kbps\nWidth                            : 720 pixels\nHeight                           : 480 pixels\nDisplay aspect ratio             : 3:2\nFrame rate                       : 25.000 fps\nStandard                         : NTSC\nColor space                      : YUV\nChroma subsampling               : 4:2:0\nBit depth                        : 8 bits\nScan type                        : Progressive\nCompression mode                 : Lossy\nBits/(Pixel*Frame)               : 0.095\nStream size                      : 688 MiB (85%)\nWriting library                  : XviD 1.2.1 (UTC 2008-12-04)\n\nAudio\nID                               : 1\nFormat                           : MPEG Audio\nFormat version                   : Version 1\nFormat profile                   : Layer 3\nMode                             : Joint stereo\nMode extension                   : MS Stereo\nCodec ID                         : 55\nCodec ID/Hint                    : MP3\nDuration                         : 1h 57mn\nBit rate mode                    : Constant\nBit rate                         : 128 Kbps\nChannel(s)                       : 2 channels\nSampling rate                    : 44.1 KHz\nCompression mode                 : Lossy\nDelay relative to video          : 40ms\nStream size                      : 107 MiB (13%)\nAlignment                        : Aligned on interleaves\nInterleave, duration             : 26 ms (0.65 video frame)\nInterleave, preload duration     : 522 ms\nWriting library                  : LAME3.98\n\n","torrent":{"xt":"urn:btih:ef752347075174f5af0398a30e6343dd54c175db","amp;dn":"Ass+Break+Hotel+DVD","amp;tr":["udp%3A%2F%2Ftracker.openbittorrent.com%3A80","udp%3A%2F%2Fopen.demonii.com%3A1337","udp%3A%2F%2Ftracker.coppersurfer.tk%3A6969","udp%3A%2F%2Fexodus.desync.com%3A6969"],"infoHash":"ef752347075174f5af0398a30e6343dd54c175db","infoHashBuffer":{"type":"Buffer","data":[239,117,35,71,7,81,116,245,175,3,152,163,14,99,67,221,84,193,117,219]},"announce":[],"urlList":[]}}